<svg width="256" height="86" viewBox="0 0 256 86" fill="none" xmlns="http://www.w3.org/2000/svg">
<g clip-path="url(#clip0)">
<path d="M18.888 23.848H14.856V34H9.06V8.8H14.856V18.988H19.032L25.656 8.8H31.812L23.568 20.968L32.064 34H25.44L18.888 23.848ZM45.7041 8.8C47.9361 8.8 49.8681 9.172 51.5001 9.916C53.1561 10.66 54.4281 11.716 55.3161 13.084C56.2041 14.452 56.6481 16.072 56.6481 17.944C56.6481 19.792 56.2041 21.412 55.3161 22.804C54.4281 24.172 53.1561 25.228 51.5001 25.972C49.8681 26.692 47.9361 27.052 45.7041 27.052H40.6281V34H34.7961V8.8H45.7041ZM45.3801 22.3C47.1321 22.3 48.4641 21.928 49.3761 21.184C50.2881 20.416 50.7441 19.336 50.7441 17.944C50.7441 16.528 50.2881 15.448 49.3761 14.704C48.4641 13.936 47.1321 13.552 45.3801 13.552H40.6281V22.3H45.3801ZM72.6993 17.08C75.7713 17.08 78.1233 17.764 79.7553 19.132C81.4113 20.5 82.2393 22.528 82.2393 25.216C82.2393 28.072 81.3273 30.256 79.5033 31.768C77.7033 33.256 75.1593 34 71.8713 34H60.4953V8.8H66.2913V17.08H72.6993ZM71.5473 29.68C73.0593 29.68 74.2353 29.308 75.0753 28.564C75.9393 27.82 76.3713 26.74 76.3713 25.324C76.3713 22.708 74.7633 21.4 71.5473 21.4H66.2913V29.68H71.5473ZM85.4433 8.8H91.2393V34H85.4433V8.8ZM120.447 34L120.411 18.916L112.995 31.336H110.403L102.987 19.204V34H97.5148V8.8H102.339L111.771 24.46L121.059 8.8H125.883L125.919 34H120.447ZM26.196 72.6H14.496L12.264 78H6.288L17.52 52.8H23.28L34.548 78H28.428L26.196 72.6ZM24.36 68.172L20.364 58.524L16.368 68.172H24.36ZM55.3498 64.86C56.8858 65.316 58.0618 66.06 58.8778 67.092C59.6938 68.124 60.1018 69.396 60.1018 70.908C60.1018 73.14 59.2498 74.88 57.5458 76.128C55.8658 77.376 53.4538 78 50.3098 78H37.8898V52.8H49.6258C52.5538 52.8 54.8338 53.364 56.4658 54.492C58.0978 55.62 58.9138 57.228 58.9138 59.316C58.9138 60.564 58.6018 61.668 57.9778 62.628C57.3538 63.564 56.4778 64.308 55.3498 64.86ZM43.6858 63.24H49.1218C50.3938 63.24 51.3538 62.988 52.0018 62.484C52.6498 61.956 52.9738 61.188 52.9738 60.18C52.9738 59.196 52.6378 58.44 51.9658 57.912C51.3178 57.384 50.3698 57.12 49.1218 57.12H43.6858V63.24ZM50.0938 73.68C52.8298 73.68 54.1978 72.6 54.1978 70.44C54.1978 68.352 52.8298 67.308 50.0938 67.308H43.6858V73.68H50.0938ZM83.6225 57.552H75.5585V78H69.7985V57.552H61.7705V52.8H83.6225V57.552ZM98.9568 78.432C96.3408 78.432 93.9768 77.868 91.8648 76.74C89.7768 75.612 88.1328 74.064 86.9328 72.096C85.7568 70.104 85.1688 67.872 85.1688 65.4C85.1688 62.928 85.7568 60.708 86.9328 58.74C88.1328 56.748 89.7768 55.188 91.8648 54.06C93.9768 52.932 96.3408 52.368 98.9568 52.368C101.573 52.368 103.925 52.932 106.013 54.06C108.101 55.188 109.745 56.748 110.945 58.74C112.145 60.708 112.745 62.928 112.745 65.4C112.745 67.872 112.145 70.104 110.945 72.096C109.745 74.064 108.101 75.612 106.013 76.74C103.925 77.868 101.573 78.432 98.9568 78.432ZM98.9568 73.464C100.445 73.464 101.789 73.128 102.989 72.456C104.189 71.76 105.125 70.8 105.797 69.576C106.493 68.352 106.841 66.96 106.841 65.4C106.841 63.84 106.493 62.448 105.797 61.224C105.125 60 104.189 59.052 102.989 58.38C101.789 57.684 100.445 57.336 98.9568 57.336C97.4688 57.336 96.1248 57.684 94.9248 58.38C93.7248 59.052 92.7768 60 92.0808 61.224C91.4088 62.448 91.0728 63.84 91.0728 65.4C91.0728 66.96 91.4088 68.352 92.0808 69.576C92.7768 70.8 93.7248 71.76 94.9248 72.456C96.1248 73.128 97.4688 73.464 98.9568 73.464ZM150.401 52.8V78H144.605V57.552H133.229V78H127.433V52.8H150.401ZM173.712 72.6H162.012L159.78 78H153.804L165.036 52.8H170.796L182.064 78H175.944L173.712 72.6ZM171.876 68.172L167.88 58.524L163.884 68.172H171.876ZM196.313 52.8C198.545 52.8 200.477 53.172 202.109 53.916C203.765 54.66 205.037 55.716 205.925 57.084C206.813 58.452 207.257 60.072 207.257 61.944C207.257 63.792 206.813 65.412 205.925 66.804C205.037 68.172 203.765 69.228 202.109 69.972C200.477 70.692 198.545 71.052 196.313 71.052H191.237V78H185.405V52.8H196.313ZM195.989 66.3C197.741 66.3 199.073 65.928 199.985 65.184C200.897 64.416 201.353 63.336 201.353 61.944C201.353 60.528 200.897 59.448 199.985 58.704C199.073 57.936 197.741 57.552 195.989 57.552H191.237V66.3H195.989ZM229.662 57.552H221.598V78H215.838V57.552H207.81V52.8H229.662V57.552ZM244.888 78.432C242.32 78.432 239.992 77.88 237.904 76.776C235.84 75.648 234.208 74.1 233.008 72.132C231.832 70.14 231.244 67.896 231.244 65.4C231.244 62.904 231.832 60.672 233.008 58.704C234.208 56.712 235.84 55.164 237.904 54.06C239.992 52.932 242.332 52.368 244.924 52.368C247.108 52.368 249.076 52.752 250.828 53.52C252.604 54.288 254.092 55.392 255.292 56.832L251.548 60.288C249.844 58.32 247.732 57.336 245.212 57.336C243.652 57.336 242.26 57.684 241.036 58.38C239.812 59.052 238.852 60 238.156 61.224C237.484 62.448 237.148 63.84 237.148 65.4C237.148 66.96 237.484 68.352 238.156 69.576C238.852 70.8 239.812 71.76 241.036 72.456C242.26 73.128 243.652 73.464 245.212 73.464C247.732 73.464 249.844 72.468 251.548 70.476L255.292 73.932C254.092 75.396 252.604 76.512 250.828 77.28C249.052 78.048 247.072 78.432 244.888 78.432Z" fill="#0E3365"/>
<path d="M152 11L163 22.5L152 34" stroke="#0E3365" stroke-width="4" stroke-linecap="round" stroke-linejoin="round"/>
<path d="M168 11L179 22.5L168 34" stroke="#0E3365" stroke-width="4" stroke-linecap="round" stroke-linejoin="round"/>
<path d="M184 11L195 22.5L184 34" stroke="#0E3365" stroke-width="4" stroke-linecap="round" stroke-linejoin="round"/>
<path d="M200 11L211 22.5L200 34" stroke="#0E3365" stroke-width="4" stroke-linecap="round" stroke-linejoin="round"/>
<path d="M216 11L227 22.5L216 34" stroke="#0E3365" stroke-width="4" stroke-linecap="round" stroke-linejoin="round"/>
</g>
<defs>
<clipPath id="clip0">
<rect width="256" height="86" fill="white"/>
</clipPath>
</defs>
</svg>
